

<svg version="1.1" id="Layer_1" xmlns="http://www.w3.org/2000/svg" xmlns:xlink="http://www.w3.org/1999/xlink" 
     x="0px" y="0px"
     width="80pt" height="80pt"
     viewBox="0 0 115 110" 
xml:space="preserve">
  

<g>
<svg xmlns="http://www.w3.org/2000/svg" xmlns:xlink="http://www.w3.org/1999/xlink" viewBox="0 0 80 80" version="1.1">
<g id="surface1">
<path style=" stroke:none;fill-rule:nonzero;fill:rgb(60.784314%,78.823529%,100%);fill-opacity:1;" d="M 17.332031 17.332031 C 14.386719 17.332031 12 19.722656 12 22.667969 L 12 73.332031 C 12 76.277344 9.613281 78.667969 6.667969 78.667969 L 70.667969 78.667969 C 75.085938 78.667969 78.667969 75.085938 78.667969 70.667969 L 78.667969 17.332031 Z M 70.667969 68 C 70.660156 69.472656 69.472656 70.660156 68 70.667969 L 52 70.667969 C 50.527344 70.660156 49.339844 69.472656 49.332031 68 L 49.332031 52 C 49.339844 50.527344 50.527344 49.339844 52 49.332031 L 53.332031 49.332031 L 53.332031 45.332031 C 53.332031 41.652344 56.316406 38.667969 60 38.667969 C 63.683594 38.667969 66.667969 41.652344 66.667969 45.332031 L 66.667969 49.332031 L 68 49.332031 C 69.472656 49.339844 70.660156 50.527344 70.667969 52 Z M 70.667969 68 "/>
<path style=" stroke:none;fill-rule:nonzero;fill:rgb(60.784314%,78.823529%,100%);fill-opacity:1;" d="M 73.332031 6.667969 L 20 6.667969 L 12 1.332031 L 4 1.332031 C 2.527344 1.332031 1.332031 2.527344 1.332031 4 L 1.332031 73.332031 C 1.332031 76.277344 3.722656 78.667969 6.667969 78.667969 C 9.613281 78.667969 12 76.277344 12 73.332031 L 12 22.667969 C 12 19.722656 14.386719 17.332031 17.332031 17.332031 L 78.667969 17.332031 L 78.667969 12 C 78.667969 9.054688 76.277344 6.667969 73.332031 6.667969 Z M 73.332031 6.667969 "/>
<path style=" stroke:none;fill-rule:nonzero;fill:rgb(60.784314%,78.823529%,100%);fill-opacity:1;" d="M 66.667969 45.332031 C 66.667969 41.652344 63.683594 38.667969 60 38.667969 C 56.316406 38.667969 53.332031 41.652344 53.332031 45.332031 L 53.332031 49.332031 L 66.667969 49.332031 Z M 66.667969 45.332031 "/>
<path style=" stroke:none;fill-rule:nonzero;fill:rgb(60.784314%,78.823529%,100%);fill-opacity:1;" d="M 29.332031 28 C 29.332031 29.472656 28.140625 30.667969 26.667969 30.667969 C 25.195312 30.667969 24 29.472656 24 28 C 24 26.527344 25.195312 25.332031 26.667969 25.332031 C 28.140625 25.332031 29.332031 26.527344 29.332031 28 Z M 29.332031 28 "/>
<path style=" stroke:none;fill-rule:nonzero;fill:rgb(60.784314%,78.823529%,100%);fill-opacity:1;" d="M 42.667969 28 C 42.667969 29.472656 41.472656 30.667969 40 30.667969 C 38.527344 30.667969 37.332031 29.472656 37.332031 28 C 37.332031 26.527344 38.527344 25.332031 40 25.332031 C 41.472656 25.332031 42.667969 26.527344 42.667969 28 Z M 42.667969 28 "/>
<path style=" stroke:none;fill-rule:nonzero;fill:rgb(60.784314%,78.823529%,100%);fill-opacity:1;" d="M 52 28 C 52 29.472656 50.804688 30.667969 49.332031 30.667969 C 47.859375 30.667969 46.667969 29.472656 46.667969 28 C 46.667969 26.527344 47.859375 25.332031 49.332031 25.332031 C 50.804688 25.332031 52 26.527344 52 28 Z M 52 28 "/>
<path style=" stroke:none;fill-rule:nonzero;fill:rgb(60.784314%,78.823529%,100%);fill-opacity:1;" d="M 34.667969 37.332031 C 34.667969 38.804688 33.472656 40 32 40 C 30.527344 40 29.332031 38.804688 29.332031 37.332031 C 29.332031 35.859375 30.527344 34.667969 32 34.667969 C 33.472656 34.667969 34.667969 35.859375 34.667969 37.332031 Z M 34.667969 37.332031 "/>
<path style=" stroke:none;fill-rule:nonzero;fill:rgb(60.784314%,78.823529%,100%);fill-opacity:1;" d="M 25.332031 37.332031 C 25.332031 38.804688 24.140625 40 22.667969 40 C 21.195312 40 20 38.804688 20 37.332031 C 20 35.859375 21.195312 34.667969 22.667969 34.667969 C 24.140625 34.667969 25.332031 35.859375 25.332031 37.332031 Z M 25.332031 37.332031 "/>
<path style=" stroke:none;fill-rule:nonzero;fill:rgb(60.784314%,78.823529%,100%);fill-opacity:1;" d="M 33.332031 46.667969 C 33.332031 48.140625 32.140625 49.332031 30.667969 49.332031 C 29.195312 49.332031 28 48.140625 28 46.667969 C 28 45.195312 29.195312 44 30.667969 44 C 32.140625 44 33.332031 45.195312 33.332031 46.667969 Z M 33.332031 46.667969 "/>
<path style=" stroke:none;fill-rule:nonzero;fill:rgb(60.784314%,78.823529%,100%);fill-opacity:1;" d="M 46.667969 46.667969 C 46.667969 48.140625 45.472656 49.332031 44 49.332031 C 42.527344 49.332031 41.332031 48.140625 41.332031 46.667969 C 41.332031 45.195312 42.527344 44 44 44 C 45.472656 44 46.667969 45.195312 46.667969 46.667969 Z M 46.667969 46.667969 "/>
<path style=" stroke:none;fill-rule:nonzero;fill:rgb(60.784314%,78.823529%,100%);fill-opacity:1;" d="M 44 37.332031 C 44 38.804688 42.804688 40 41.332031 40 C 39.859375 40 38.667969 38.804688 38.667969 37.332031 C 38.667969 35.859375 39.859375 34.667969 41.332031 34.667969 C 42.804688 34.667969 44 35.859375 44 37.332031 Z M 44 37.332031 "/>
<path style=" stroke:none;fill-rule:nonzero;fill:rgb(60.784314%,78.823529%,100%);fill-opacity:1;" d="M 34.667969 65.332031 C 34.667969 66.804688 33.472656 68 32 68 C 30.527344 68 29.332031 66.804688 29.332031 65.332031 C 29.332031 63.859375 30.527344 62.667969 32 62.667969 C 33.472656 62.667969 34.667969 63.859375 34.667969 65.332031 Z M 34.667969 65.332031 "/>
<path style=" stroke:none;fill-rule:nonzero;fill:rgb(60.784314%,78.823529%,100%);fill-opacity:1;" d="M 25.332031 65.332031 C 25.332031 66.804688 24.140625 68 22.667969 68 C 21.195312 68 20 66.804688 20 65.332031 C 20 63.859375 21.195312 62.667969 22.667969 62.667969 C 24.140625 62.667969 25.332031 63.859375 25.332031 65.332031 Z M 25.332031 65.332031 "/>
<path style=" stroke:none;fill-rule:nonzero;fill:rgb(60.784314%,78.823529%,100%);fill-opacity:1;" d="M 44 65.332031 C 44 66.804688 42.804688 68 41.332031 68 C 39.859375 68 38.667969 66.804688 38.667969 65.332031 C 38.667969 63.859375 39.859375 62.667969 41.332031 62.667969 C 42.804688 62.667969 44 63.859375 44 65.332031 Z M 44 65.332031 "/>
<path style=" stroke:none;fill-rule:nonzero;fill:rgb(60.784314%,78.823529%,100%);fill-opacity:1;" d="M 38.667969 56 C 38.667969 57.472656 37.472656 58.667969 36 58.667969 C 34.527344 58.667969 33.332031 57.472656 33.332031 56 C 33.332031 54.527344 34.527344 53.332031 36 53.332031 C 37.472656 53.332031 38.667969 54.527344 38.667969 56 Z M 38.667969 56 "/>
<path style=" stroke:none;fill-rule:nonzero;fill:rgb(60.784314%,78.823529%,100%);fill-opacity:1;" d="M 29.332031 56 C 29.332031 57.472656 28.140625 58.667969 26.667969 58.667969 C 25.195312 58.667969 24 57.472656 24 56 C 24 54.527344 25.195312 53.332031 26.667969 53.332031 C 28.140625 53.332031 29.332031 54.527344 29.332031 56 Z M 29.332031 56 "/>
<path style=" stroke:none;fill-rule:nonzero;fill:rgb(11.764706%,50.588235%,80.784314%);fill-opacity:1;" d="M 72 10.667969 L 74.667969 10.667969 L 74.667969 13.332031 L 72 13.332031 Z M 72 10.667969 "/>
<path style=" stroke:none;fill-rule:nonzero;fill:rgb(11.764706%,50.588235%,80.784314%);fill-opacity:1;" d="M 5.332031 70.667969 L 8 70.667969 L 8 73.332031 L 5.332031 73.332031 Z M 5.332031 70.667969 "/>
<path style=" stroke:none;fill-rule:nonzero;fill:rgb(11.764706%,50.588235%,80.784314%);fill-opacity:1;" d="M 73.332031 5.332031 L 20.398438 5.332031 L 12.398438 0 L 4 0 C 1.792969 0 0 1.792969 0 4 L 0 73.332031 C 0.00390625 77.011719 2.988281 79.996094 6.667969 80 L 70.667969 80 C 75.820312 79.996094 79.996094 75.820312 80 70.667969 L 80 12 C 79.996094 8.320312 77.011719 5.339844 73.332031 5.332031 Z M 77.332031 70.667969 C 77.328125 74.347656 74.347656 77.328125 70.667969 77.332031 L 12 77.332031 C 12.867188 76.179688 13.335938 74.777344 13.332031 73.332031 L 13.332031 22.667969 C 13.332031 20.457031 15.125 18.667969 17.332031 18.667969 L 77.332031 18.667969 Z M 77.332031 16 L 17.332031 16 C 13.652344 16.003906 10.671875 18.988281 10.667969 22.667969 L 10.667969 73.332031 C 10.667969 75.542969 8.875 77.332031 6.667969 77.332031 C 4.457031 77.332031 2.667969 75.542969 2.667969 73.332031 L 2.667969 4 C 2.667969 3.261719 3.261719 2.667969 4 2.667969 L 11.601562 2.667969 L 19.601562 8 L 73.332031 8 C 75.542969 8 77.332031 9.792969 77.332031 12 Z M 77.332031 16 "/>
<path style=" stroke:none;fill-rule:nonzero;fill:rgb(11.764706%,50.588235%,80.784314%);fill-opacity:1;" d="M 5.332031 17.332031 L 5.332031 68 L 8 68 L 8 17.332031 C 8 15.125 9.792969 13.332031 12 13.332031 L 69.332031 13.332031 L 69.332031 10.667969 L 12 10.667969 C 8.320312 10.671875 5.339844 13.652344 5.332031 17.332031 Z M 5.332031 17.332031 "/>
<path style=" stroke:none;fill-rule:nonzero;fill:rgb(11.764706%,50.588235%,80.784314%);fill-opacity:1;" d="M 52 48 C 49.792969 48 48 49.792969 48 52 L 48 68 C 48 70.207031 49.792969 72 52 72 L 68 72 C 70.207031 72 72 70.207031 72 68 L 72 52 C 72 49.792969 70.207031 48 68 48 L 68 45.332031 C 68 40.914062 64.417969 37.332031 60 37.332031 C 55.582031 37.332031 52 40.914062 52 45.332031 Z M 69.332031 52 L 69.332031 53.332031 L 66.667969 53.332031 L 66.667969 56 L 69.332031 56 L 69.332031 58.667969 L 66.667969 58.667969 L 66.667969 61.332031 L 69.332031 61.332031 L 69.332031 64 L 66.667969 64 L 66.667969 66.667969 L 69.332031 66.667969 L 69.332031 68 C 69.332031 68.738281 68.738281 69.332031 68 69.332031 L 52 69.332031 C 51.261719 69.332031 50.667969 68.738281 50.667969 68 L 50.667969 66.667969 L 53.332031 66.667969 L 53.332031 64 L 50.667969 64 L 50.667969 61.332031 L 53.332031 61.332031 L 53.332031 58.667969 L 50.667969 58.667969 L 50.667969 56 L 53.332031 56 L 53.332031 53.332031 L 50.667969 53.332031 L 50.667969 52 C 50.667969 51.261719 51.261719 50.667969 52 50.667969 L 68 50.667969 C 68.738281 50.667969 69.332031 51.261719 69.332031 52 Z M 54.667969 45.332031 C 54.667969 42.386719 57.054688 40 60 40 C 62.945312 40 65.332031 42.386719 65.332031 45.332031 L 65.332031 48 L 54.667969 48 Z M 54.667969 45.332031 "/>
<path style=" stroke:none;fill-rule:nonzero;fill:rgb(11.764706%,50.588235%,80.784314%);fill-opacity:1;" d="M 58.667969 61.089844 L 58.667969 66.667969 L 61.332031 66.667969 L 61.332031 61.089844 C 63.167969 60.4375 64.273438 58.558594 63.941406 56.640625 C 63.613281 54.71875 61.949219 53.316406 60 53.316406 C 58.050781 53.316406 56.386719 54.71875 56.058594 56.640625 C 55.726562 58.558594 56.832031 60.4375 58.667969 61.089844 Z M 60 56 C 60.738281 56 61.332031 56.597656 61.332031 57.332031 C 61.332031 58.070312 60.738281 58.667969 60 58.667969 C 59.261719 58.667969 58.667969 58.070312 58.667969 57.332031 C 58.667969 56.597656 59.261719 56 60 56 Z M 60 56 "/>

</g>
</svg>

  
  
</g>
<g transform="translate(7,25)
              scale(0.65 0.65)">
<svg id="Layer_1" data-name="Layer 1" xmlns="http://www.w3.org/2000/svg" viewBox="20 40 170 250"><defs><style>.cls-1{fill:#130754;}.cls-2{fill:#ffca00;}.cls-3{fill:#e70488;}</style></defs><title>Artboard 63</title><rect class="cls-1" x="74.88" y="68.42" width="24.09" height="50.02"/>
 <rect class="cls-1" x="74.88" y="171.17" width="24.09" height="50.02"/><rect class="cls-2" x="74.88" y="133.04" width="24.09" height="23.6"/><rect class="cls-1" x="36.19" y="109.55" width="24.09" height="166.27"/><rect class="cls-1" x="112.78" y="212.44" width="24.09" height="50.02"/><rect class="cls-1" x="112.78" y="109.61" width="24.09" height="50.02"/><rect class="cls-3" x="112.78" y="174.23" width="24.09" height="23.6"/><rect class="cls-1" x="150.67" y="55.39" width="24.09" height="166.27"/>
  </svg>


  

</g>
</svg>
 